<svg xmlns="http://www.w3.org/2000/svg" width="77" height="77" class="lds-zigzag" preserveAspectRatio="xMidYMid" viewBox="0 0 100 100" style="background:0 0"><defs><clipPath id="zigzag-clip-21dad1399e1f9"><rect width="60" height="100" x="20" y="0"/></clipPath></defs><path fill="none" stroke="#1cb9c8" stroke-linecap="round" stroke-linejoin="round" stroke-miterlimit="10" stroke-width="5" d="M90,76.7V28.3c0-2.7-2.2-5-5-5h-3.4c-2.7,0-5,2.2-5,5v43.4c0,2.7-2.2,5-5,5h-3.4c-2.7,0-5-2.2-5-5V28.3c0-2.7-2.2-5-5-5H55 c-2.7,0-5,2.2-5,5v43.4c0,2.7-2.2,5-5,5h-3.4c-2.7,0-5-2.2-5-5V28.3c0-2.7-2.2-5-5-5h-3.4c-2.7,0-5,2.2-5,5v43.4c0,2.7-2.2,5-5,5H15 c-2.7,0-5-2.2-5-5V23.3" clip-path="url(#zigzag-clip-21dad1399e1f9)" transform="translate(0.240551 0)"><animateTransform attributeName="transform" begin="0s" calcMode="linear" dur="1s" keyTimes="0;1" repeatCount="indefinite" type="translate" values="-20 0;7 0"/><animate attributeName="stroke-dasharray" begin="0s" calcMode="linear" dur="1" keyTimes="0;1" repeatCount="indefinite" values="0 72 125 232;0 197 125 233"/></path></svg>